<?xml version="1.0" encoding="UTF-8" standalone="no"?>
<svg
   width="940"
   height="256"
   viewBox="0 0 940 256"
   role="img"
   aria-labelledby="title desc"
   version="1.1"
   id="svg5"
   xmlns="http://www.w3.org/2000/svg"
   xmlns:svg="http://www.w3.org/2000/svg">
  <defs
     id="defs5" />
  <title
     id="title">Workproba dark logo with wordmark</title>
  <desc
     id="desc">Workproba logo with wordmark, dark version.</desc>
  <g
     id="mark">
    <rect
       x="24"
       y="24"
       width="208"
       height="208"
       rx="48"
       fill="#223354"
       id="rect1" />
    <path
       d="M70 78 L102 176 L128 112 L154 176 L186 78"
       fill="none"
       stroke="#F7F9FF"
       stroke-width="16"
       stroke-linecap="round"
       stroke-linejoin="round"
       id="path1" />
    <circle
       cx="70"
       cy="78"
       r="11"
       fill="#4D6BFF"
       id="circle1" />
    <circle
       cx="102"
       cy="176"
       r="11"
       fill="#27B8A6"
       id="circle2" />
    <circle
       cx="128"
       cy="112"
       r="11"
       fill="#4D6BFF"
       id="circle3" />
    <circle
       cx="154"
       cy="176"
       r="11"
       fill="#27B8A6"
       id="circle4" />
    <circle
       cx="186"
       cy="78"
       r="11"
       fill="#FF7A66"
       id="circle5" />
  </g>
  <g
     id="wordmark">
    <path
       d="m 300.9082,151 h 11.58789 l 6.54102,-25.30078 c 0.96289,-3.75195 1.56055,-7.70313 2.19141,-11.82031 0.69726,4.25 1.36132,8.26757 2.25781,11.82031 L 330.06055,151 h 11.55468 l 13.31446,-49.47266 h -11.08985 l -5.74414,24.33789 c -0.99609,4.51563 -1.85937,9.82813 -2.65625,14.875 -0.89648,-5.04687 -1.79297,-10.35937 -2.88867,-14.875 l -6.00976,-24.33789 h -10.5254 l -6.04296,24.33789 c -1.12891,4.54883 -1.99219,9.92774 -2.88868,15.00782 -0.79687,-5.08008 -1.66015,-10.45899 -2.65625,-15.00782 l -5.74414,-24.33789 h -11.05664 z m 70.71328,0.73047 c 11.15625,0 18.16211,-7.70313 18.16211,-19.125 0,-11.48828 -7.00586,-19.19141 -18.16211,-19.19141 -11.18945,0 -18.16211,7.70313 -18.16211,19.19141 0,11.42187 6.97266,19.125 18.16211,19.125 z m 0,-7.83594 c -5.3125,0 -8.00195,-4.84766 -8.00195,-11.32226 0,-6.57422 2.68945,-11.32227 8.00195,-11.32227 5.3125,0 8.03516,4.78125 8.03516,11.32227 0,6.4746 -2.72266,11.32226 -8.03516,11.32226 z M 394.32304,151 h 9.96094 v -21.11719 c 0,-4.61523 3.35352,-7.76953 7.93555,-7.76953 1.46094,0 3.41992,0.23242 4.3164,0.49805 v -8.89844 c -0.89648,-0.19922 -2.1914,-0.33203 -3.2207,-0.33203 -4.18359,0 -7.60351,2.39062 -8.96484,6.97266 h -0.39844 v -6.47461 h -9.62891 z m 26.35392,0 h 9.96093 v -11.91992 l 2.85547,-3.22071 L 443.85274,151 h 11.7207 l -14.57617,-21.01758 13.8789,-16.10351 h -11.52148 l -12.15234,14.27734 h -0.56446 v -26.62891 h -9.96093 z m 37.0453,13.87891 h 9.96094 v -19.82227 h 0.29883 c 1.39453,2.98828 4.44921,6.57422 10.52539,6.57422 8.5664,0 15.10742,-6.77344 15.10742,-19.125 0,-12.68359 -6.80664,-19.0918 -15.04102,-19.0918 -6.30859,0 -9.23047,3.75196 -10.59179,6.70703 h -0.46485 v -6.24218 h -9.79492 z m 17.73047,-21.25 c -5.08008,0 -8.00195,-4.44922 -8.00195,-11.15625 0,-6.74024 2.88867,-11.08985 8.00195,-11.08985 5.21289,0 7.96875,4.58203 7.96875,11.08985 0,6.54101 -2.78906,11.15625 -7.96875,11.15625 z M 498.1875,151 h 9.96094 v -21.11719 c 0,-4.61523 3.35351,-7.76953 7.93554,-7.76953 1.46094,0 3.41993,0.23242 4.31641,0.49805 v -8.89844 c -0.89648,-0.19922 -2.19141,-0.33203 -3.2207,-0.33203 -4.1836,0 -7.60352,2.39062 -8.96485,6.97266 h -0.39843 v -6.47461 h -9.62891 z m 40.23282,0.73047 c 11.15625,0 18.16211,-7.70313 18.16211,-19.125 0,-11.48828 -7.00586,-19.19141 -18.16211,-19.19141 -11.18945,0 -18.16211,7.70313 -18.16211,19.19141 0,11.42187 6.97266,19.125 18.16211,19.125 z m 0,-7.83594 c -5.3125,0 -8.00195,-4.84766 -8.00195,-11.32226 0,-6.57422 2.68945,-11.32227 8.00195,-11.32227 5.3125,0 8.03515,4.78125 8.03515,11.32227 0,6.4746 -2.72265,11.32226 -8.03515,11.32226 z m 43.48672,7.73633 c 8.56641,0 15.10743,-6.77344 15.10743,-19.125 0,-12.68359 -6.80665,-19.0918 -15.04102,-19.0918 -6.30859,0 -9.23047,3.75196 -10.5918,6.70703 h -0.29883 v -18.59375 h -9.96093 V 151 h 9.79492 v -5.94336 h 0.46484 c 1.39453,2.98828 4.44922,6.57422 10.52539,6.57422 z m -3.05468,-8.00195 c -5.08008,0 -8.00196,-4.44922 -8.00196,-11.15625 0,-6.74024 2.88867,-11.08985 8.00196,-11.08985 5.21289,0 7.96875,4.58203 7.96875,11.08985 0,6.54101 -2.78907,11.15625 -7.96875,11.15625 z m 33.75817,8.10156 c 5.47852,0 9.06446,-2.42383 10.85743,-5.87695 h 0.33203 V 151 h 9.42969 v -25.00195 c 0,-8.99805 -7.76954,-12.58399 -15.73829,-12.58399 -8.30078,0 -14.27734,3.68555 -16.16992,10.12696 l 9.13086,1.52734 c 0.79688,-2.39063 3.1543,-4.2832 7.00586,-4.2832 3.71875,0 5.81055,1.79297 5.81055,4.94726 v 0.16602 c 0,2.42383 -2.62305,2.68945 -8.99805,3.32031 -7.30469,0.69727 -14.01172,3.08789 -14.01172,11.38867 0,7.33789 5.2793,11.12305 12.35156,11.12305 z m 2.82227,-7.00586 c -3.28711,0 -5.61133,-1.49414 -5.61133,-4.38281 0,-2.98828 2.45703,-4.41602 6.14258,-4.94727 2.19141,-0.29883 6.14258,-0.83008 7.37109,-1.69336 v 4.01758 c 0,3.91797 -3.2539,7.00586 -7.90234,7.00586 z"
       id="text5"
       style="font-weight:700;font-size:68px;font-family:Inter;letter-spacing:-2.4;fill:#f7f9ff"
       aria-label="Workproba" />
  </g>
</svg>
